<svg width="124" height="124" viewBox="0 0 124 124" fill="none" xmlns="http://www.w3.org/2000/svg">
<g clip-path="url(#clip0_2257_11945)">
<path d="M36.717 122.874C30.408 120.694 26.2466 116.366 21.3598 112.761C19.3411 110.157 17.1438 107.733 14.9899 105.269C12.7765 102.986 11.4622 99.8129 9.7448 97.0279C6.46365 90.3563 4.55403 83.0943 4.12891 75.6717V60.3156C4.29754 58.6156 4.80095 57.2417 4.87287 55.445C3.98752 55.342 5.30189 54.4455 5.24485 53.947C4.97453 52.8001 5.8897 52.8434 5.61691 51.6977C6.261 50.3816 6.7647 49.0013 7.11974 47.5797C7.80576 46.4148 8.31003 45.152 8.61516 43.8349C9.00229 43.579 9.33417 43.2482 9.59124 42.8619C9.84831 42.4755 10.0254 42.0415 10.1119 41.5856C10.7567 41.1033 11.5874 40.8106 11.6122 39.7107C13.1002 38.8266 13.838 37.1936 14.9825 35.9672C21.9974 31.1025 29.7002 27.3138 37.8355 24.7267C43.7654 24.4655 49.7009 25.0967 55.4433 26.5991C52.7972 19.2547 46.0554 16.0071 42.7074 9.36328C42.4594 7.74261 43.3571 7.25531 43.8333 6.36623C44.5339 6.37863 44.5575 5.7165 44.5773 5.05435C44.5971 4.3922 44.6256 3.72634 45.33 3.74246C48.73 3.33575 49.2855 5.77727 51.3191 6.7395C52.8232 8.22749 53.799 10.2536 55.4383 11.6077C58.2006 7.34365 61.7626 3.65496 65.9274 0.745346C67.3466 0.836941 68.7668 0.581619 70.0652 0.0013839C71.2891 0.0162638 72.5365 0.0113038 73.7852 0.0013839C79.0601 -0.0209359 84.335 -0.0419945 88.0451 1.49559C89.481 7.31485 86.0239 11.1116 85.048 15.7318C83.591 17.1429 82.6363 19.0637 81.3045 20.6013C79.6925 21.8574 78.1686 23.2127 76.4326 24.3461C71.8508 25.2649 66.5449 24.4527 62.5707 23.6021C62.6439 25.2786 62.9774 26.6896 64.0699 27.3468C64.8895 28.1516 67.1389 27.5242 67.8196 28.4715C70.7143 28.119 73.589 27.6186 76.4326 26.9723H90.6701C94.6697 27.776 98.5645 29.0337 102.279 30.7208C105.307 32.6262 108.189 34.7546 110.901 37.0882C113.07 40.6581 115.569 43.9081 116.89 48.3262C118.569 52.3896 119.258 57.4463 119.887 62.5613V78.2967C119.102 84.4111 117.33 90.3575 114.64 95.9045C112.667 101.545 108.664 105.162 105.654 109.765C102.935 111.538 100.788 113.893 98.1572 115.758C95.7429 117.715 92.5772 118.914 89.9199 120.63C87.5243 121.107 84.6674 121.126 82.7999 122.128C81.6493 122.015 80.5167 121.763 79.4271 121.376C79.0018 122.325 77.7692 122.465 76.4313 122.501C76.1833 121.385 73.9266 122.253 73.8063 121.001C73.545 121.017 73.2832 120.974 73.0408 120.875C72.7983 120.776 72.5815 120.624 72.4063 120.429C72.21 120.208 71.9601 120.041 71.6806 119.944C71.4011 119.848 71.1015 119.825 70.8105 119.877C68.813 118.591 66.4228 118.06 64.0687 118.377C60.9302 119.11 58.7937 120.843 56.5754 122.5C54.3198 122.366 53.5052 123.673 51.7084 123.999C46.7423 123.595 41.1004 123.865 36.717 122.874ZM46.0826 110.14C48.0666 110.884 47.423 113.179 47.2073 115.384C48.1215 115.378 49.0154 115.113 49.7853 114.62C50.6853 114.033 51.7597 113.774 52.8282 113.886C53.7644 112.327 53.9987 110.063 56.5705 110.14C57.2909 110.106 57.493 110.591 57.6964 111.074C57.8997 111.558 58.1018 112.043 58.8222 112.012C62.4442 111.547 66.7755 110.104 70.8055 111.268C71.8284 110.637 72.9838 110.253 74.1807 110.145C75.5748 110.264 76.9547 110.513 78.3025 110.889H82.4192C85.9966 109.846 90.2436 109.471 93.6622 108.266C95.9949 106.505 98.1294 104.495 100.028 102.273C99.9337 101.26 100.061 100.238 100.4 99.2785C103.7 95.4569 107.167 91.8039 108.268 85.7899C108.614 82.6391 109.646 80.174 110.139 77.1733C110.349 73.9097 110.724 70.6588 111.263 67.4331C109.916 60.9158 108.039 54.9205 108.267 46.8295C107.82 45.629 107.569 44.3647 107.523 43.0847C106.456 42.4015 106.159 40.9532 104.895 40.461C104.787 39.6971 103.883 39.7244 103.779 38.9618C103.317 39.0126 103.224 38.6965 103.129 38.379C103.024 38.0207 102.919 37.6623 102.278 37.8383C98.0087 35.2764 93.3151 33.5004 88.4195 32.5944C86.5291 32.6254 84.6384 32.5568 82.7553 32.3886C79.7781 32.0231 76.7636 32.0924 73.8063 32.5944C72.539 32.8238 73.2086 34.9901 71.5594 34.8438C70.6482 34.9175 69.7311 34.8506 68.8402 34.6454C67.8903 34.4231 66.9096 34.3631 65.9398 34.4681C65.4004 35.6783 65.5876 37.6102 65.5678 39.34C68.3888 39.4119 69.6846 37.9599 72.3096 37.8396C72.8865 37.1069 73.6288 36.5212 74.4756 36.1304C75.3224 35.7397 76.2496 35.555 77.1815 35.5915C77.7782 35.7476 78.3129 36.0823 78.714 36.5508C79.1152 37.0193 79.3636 37.5992 79.4259 38.2128C79.2297 40.0383 78.4415 41.7494 77.1815 43.0847C73.2409 44.512 69.3237 45.9689 65.1896 47.2027H55.4507C53.5697 46.5914 51.2522 46.4067 49.8336 45.3328C47.7356 44.9323 45.8892 44.2838 45.7106 41.9601C45.7788 39.9588 47.9054 40.0146 50.0308 40.0704C50.4697 40.0815 50.9087 40.0927 51.3315 40.0865C53.5311 40.659 55.8229 40.7855 58.0721 40.4585C57.9642 38.1943 58.3734 35.4117 57.7001 33.7167C54.3038 32.7904 49.8981 32.8772 45.4912 32.964C43.2765 33.0074 41.0607 33.0508 38.9738 32.964C37.0903 33.336 35.2427 33.7303 33.3529 34.0886C32.8569 34.7086 31.6851 34.6715 31.1036 35.2146C30.3149 35.5444 29.9951 36.3503 28.8568 36.3305C26.5355 38.5079 22.6791 39.144 21.3647 42.3271C23.5657 41.9972 24.7586 42.6768 25.112 44.1971C25.0574 46.7688 23.376 47.7049 22.8614 49.8154C21.9372 51.7445 21.1853 53.7517 20.6145 55.8132C21.0758 56.277 21.5023 56.1009 22.0492 55.9236C22.5465 55.7301 23.0908 55.6916 23.6103 55.8132C24.0381 56.6378 24.8615 57.0532 25.112 58.0625C24.053 59 23.9228 60.8687 22.8614 61.8061C21.8124 65.629 20.6542 69.3403 19.8656 73.4211C20.2152 75.3381 18.4544 78.0475 20.2375 79.0395C20.8786 76.6835 21.4639 74.2692 24.358 74.1687C24.4423 74.8718 25.324 76.6488 24.358 77.1671C24.4805 78.3418 24.2196 79.5246 23.6141 80.5386C23.6699 81.799 23.5446 83.0609 23.2421 84.2858C23.7703 85.8345 22.1757 87.1787 23.2421 88.0306C24.0679 86.1061 23.8286 83.119 26.9893 83.5381C27.9267 86.7807 26.7835 91.0289 26.2379 94.0235C26.7562 94.5071 26.6099 95.6528 26.6161 96.646C25.9961 97.3975 26.6458 99.4236 25.8646 100.019C26.0978 101.156 25.386 103.243 26.2366 103.764C26.931 100.961 27.3526 97.881 31.1073 98.1451C32.3473 98.5295 32.3696 100.129 32.609 101.514C33.467 101.276 34.8645 100.77 35.606 101.514C35.8094 102.937 36.5099 103.857 36.35 105.638C37.7462 105.286 38.298 104.092 40.4717 104.512C41.9014 107.157 39.3557 111.625 41.2157 113.505C41.2231 112.885 42.2561 113.295 42.3416 112.761C43.2096 112.876 42.757 111.678 43.4663 111.639C43.9474 110.908 44.3516 110.096 45.5656 110.096C45.7388 110.097 45.9117 110.112 46.0826 110.14ZM14.6179 67.4331C14.4158 68.2503 13.7103 69.8548 14.9899 70.0545C14.3935 68.8343 16.2572 67.4331 14.6675 67.4331H14.6179ZM61.4399 12.7398C61.4504 13.2309 61.3564 13.7186 61.1639 14.1705C60.9715 14.6224 60.6851 15.0283 60.3239 15.3611C60.2085 16.497 58.8756 16.4151 58.8247 17.6092C62.355 19.3204 67.7527 19.1654 73.0574 19.1071C75.272 17.9465 76.4053 15.7158 78.305 14.2377C78.801 11.2407 81.0664 10.0105 81.302 6.74442H68.1841C67.3955 7.07798 67.0806 7.88395 65.9361 7.86907C64.4431 9.49593 63.3073 11.4837 61.4399 12.7398ZM88.417 81.6682C88.1852 77.3097 86.4542 69.5721 91.7873 69.6775C94.5376 71.6416 94.9294 77.2204 94.0366 81.6682C92.7855 81.6682 92.7545 82.8871 91.4104 82.7929C91.2788 82.8145 91.1457 82.8257 91.0123 82.8263C89.7587 82.8325 89.6297 81.7092 88.417 81.6682ZM97.7814 64.8044C97.8323 63.3585 99.3029 63.3288 99.6575 62.1818C103.275 62.2785 103.246 68.1809 101.53 70.4252C101.287 70.4605 101.042 70.4787 100.797 70.4798C97.8992 70.486 97.929 67.5596 97.7789 64.8106L97.7814 64.8044ZM77.5213 65.1193C77.6155 62.3802 79.5474 59.6398 83.1731 60.6839C84.9451 63.1539 85.0579 68.0395 82.4205 69.6726C82.076 69.7433 81.7255 69.7798 81.3739 69.7817C78.6943 69.7879 77.4407 67.4567 77.5201 65.1256L77.5213 65.1193Z" fill="white"/>
</g>
<defs>
<clipPath id="clip0_2257_11945">
<rect width="124" height="124" fill="white"/>
</clipPath>
</defs>
</svg>
